<?xml version="1.0" encoding="utf-8"?>
<!-- Generator: Adobe Illustrator 23.0.1, SVG Export Plug-In . SVG Version: 6.00 Build 0)  -->
<svg version="1.1" id="Layer_1" xmlns="http://www.w3.org/2000/svg" xmlns:xlink="http://www.w3.org/1999/xlink" x="0px" y="0px"
	 viewBox="0 0 39.7 20" style="enable-background:new 0 0 39.7 20;" xml:space="preserve">
<g>
	<path d="M19.9,3c0-1.1-0.8-1.8-1.8-1.8c-0.2,0-0.3,0-0.5,0c0-0.4,0.1-0.9-0.4-1.2h-0.3c-0.5,0.2-0.4,0.7-0.4,1.2h-2.4
		c0-0.4,0.1-0.9-0.4-1.2h-0.3c-0.5,0.2-0.4,0.7-0.4,1.2h-2.3h0c0,0,0-0.1,0-0.1c0-0.4,0.1-0.8-0.4-1h0H9.8h0c-0.5,0.2-0.4,0.6-0.4,1
		c0,0,0,0.1,0,0.1h0H7.1c0-0.4,0.1-0.9-0.4-1.2H6.4C5.8,0.3,5.9,0.8,5.9,1.2H3.6c0-0.4,0.1-0.9-0.4-1.2H2.8C2.3,0.3,2.4,0.8,2.4,1.2
		c-0.2,0-0.3,0-0.5,0C0.8,1.2,0.1,2,0.1,3c0,5,0,10,0,15.1c0,1.1,0.8,1.8,1.8,1.8c2.3,0,4.5,0,6.8,0c0.9,0,1.8,0,2.7,0
		c2.3,0,4.5,0,6.8,0c1.1,0,1.8-0.8,1.8-1.8C19.9,13.1,19.9,8.1,19.9,3z M18.8,6.1c0,4,0,8,0,11.9c0,0.5-0.2,0.7-0.7,0.7
		c-2.3,0-4.5,0-6.8,0c-0.8,0-1.7,0-2.5,0c-2.3,0-4.5,0-6.8,0c-0.5,0-0.7-0.2-0.7-0.7c0-4,0-8,0-11.9V5.9h8.1h1.3h8.1V6.1z M18.8,4.7
		h-8.1H9.4H1.2V4.1c0-0.4,0-0.7,0-1.1c0-0.4,0.2-0.6,0.6-0.6c0.2,0,0.3,0,0.5,0c0,0.2,0,0.4,0,0.6c0,0.3,0.2,0.6,0.6,0.6
		c0.3,0,0.6-0.3,0.6-0.6c0-0.2,0-0.3,0-0.5h2.4c0,0.2,0,0.4,0,0.6c0,0.3,0.3,0.6,0.6,0.6c0.3,0,0.6-0.3,0.6-0.6c0-0.2,0-0.4,0-0.6
		c0,0,0.1,0,0.1,0c0.7,0,1.5,0,2.2,0c0,0,0,0,0,0h0c0,0.2,0,0.3,0,0.5c0,0.4,0.2,0.6,0.5,0.6c0,0,0,0,0,0c0,0,0,0,0,0s0,0,0,0
		c0,0,0,0,0,0c0.3,0,0.5-0.3,0.5-0.6c0-0.2,0-0.3,0-0.5h0c0,0,0,0,0,0c0.8,0,1.5,0,2.2,0c0,0,0,0,0.1,0c0,0.2,0,0.4,0,0.6
		c0,0.3,0.3,0.6,0.6,0.6c0.3,0,0.6-0.2,0.6-0.6c0-0.2,0-0.4,0-0.6h2.4c0,0.2,0,0.4,0,0.5c0,0.4,0.3,0.6,0.6,0.6
		c0.3,0,0.6-0.3,0.6-0.6c0-0.2,0-0.4,0-0.6c0.2,0,0.4,0,0.5,0c0.4,0,0.6,0.2,0.6,0.6c0,0.4,0,0.7,0,1.1V4.7z"/>
	<path d="M9.4,12.9c0-0.4,0-0.8,0-1.2c0,0-0.1-0.1-0.1-0.1C8.4,11.2,7.9,10,8.5,9.1C8.9,8.5,9.1,8,9.4,7.5c0.3-0.5,0.8-0.5,1.1,0
		c0.3,0.6,0.6,1.1,1,1.7c0.5,0.9,0.1,2-0.8,2.4c-0.1,0.1-0.2,0.1-0.2,0.3c0,0.4,0,0.7,0,1.1c0.1,0,0.2,0,0.3,0c0.4,0,0.9,0,1.3,0
		c1.1,0,1.8,0.8,1.8,1.8c0,0.5,0,1,0,1.5c0,0.1,0,0.1,0,0.2c0.2,0,0.3,0,0.5,0c0.4,0,0.7,0.2,0.7,0.6c0,0.3-0.3,0.6-0.7,0.6
		c-2.6,0-5.1,0-7.7,0c-0.5,0-1,0-1.4,0c-0.4,0-0.7-0.2-0.7-0.6c0-0.3,0.3-0.6,0.7-0.6c0.2,0,0.3,0,0.5,0c0-0.6,0-1.1,0-1.6
		c0-0.2,0-0.4,0.1-0.6c0.2-0.8,0.9-1.3,1.7-1.3c0.5,0,1,0,1.5,0C9.3,12.9,9.3,12.9,9.4,12.9z M12.9,16.4c0-0.6,0-1.2,0-1.8
		c0-0.3-0.3-0.5-0.6-0.5c-1.5,0-3.1,0-4.6,0c-0.4,0-0.6,0.2-0.6,0.6c0,0.2,0,0.5,0,0.7c0,0.3,0,0.7,0,1C9,16.4,11,16.4,12.9,16.4z
		 M10,8.8C9.8,9.2,9.6,9.5,9.5,9.8c-0.1,0.2,0,0.5,0.2,0.7c0.2,0.2,0.5,0.2,0.7,0c0.2-0.2,0.3-0.5,0.2-0.7C10.4,9.5,10.2,9.2,10,8.8
		z"/>
</g>
</svg>
