<?xml version="1.0" encoding="utf-8"?>
<!-- Generator: Adobe Illustrator 23.0.1, SVG Export Plug-In . SVG Version: 6.00 Build 0)  -->
<svg version="1.1" id="Layer_1" xmlns="http://www.w3.org/2000/svg" xmlns:xlink="http://www.w3.org/1999/xlink" x="0px" y="0px"
	 viewBox="0 0 26.4 40" style="enable-background:new 0 0 26.4 40;" xml:space="preserve">
<style type="text/css">
	.st0{fill:#191919;}
</style>
<g>
	<path d="M8.2,19.3C9.1,13.6,10.1,8,11,2.5c0.3-1.7,0.9-2.2,2.6-2.2c3.4,0,6.9,0,10.3,0c1.7,0,2.5,0.9,2.3,2.6
		c-0.9,5.6-1.9,11.2-2.9,16.8c-0.1,0.4-0.1,0.8-0.1,1.1c0,5.9,0,11.8,0,17.7c0,1.2,0,1.3-1.3,1.2c-1.9,0-1.9,0.5-2.2-2
		c-0.5-4.2-1.1-8.4-1.6-12.5c-0.1-1.1-0.9-0.5-1.5-0.7c-0.2,1.1-0.3,2.2-0.4,3.2c-0.5,3.6-0.9,7.1-1.4,10.7
		c-0.2,1.3-0.2,1.3-1.5,1.3c-2.1,0-1.9,0.1-1.9-1.9c0-4.1,0-8.2,0-12.3c0-0.3,0-0.6,0-0.9c-2,0-3.9,0-6,0c-0.1,1-0.3,2.1-0.4,3.1
		C4.5,31.3,4,34.9,3.6,38.4c-0.2,1.3-0.2,1.3-1.5,1.3c-2.1,0-1.9,0.1-1.9-1.9c0-5.2,0-10.4,0-15.5c0-1.9,1-2.9,2.9-2.9
		C4.8,19.3,6.4,19.3,8.2,19.3z M9.5,19.3c3.3,0,6.5,0,9.8,0c1-5.9,2-11.8,3.1-17.7c-0.4,0-0.7,0-1,0c-2.5,0-5,0-7.6,0
		c-1.3,0-1.3,0.1-1.6,1.4c-0.4,2.5-0.8,4.9-1.3,7.4C10.6,13.3,10,16.3,9.5,19.3z M21.9,23.3c0-1.3-0.1-2.5,0-3.7
		c0.5-3.3,1.1-6.6,1.7-9.9C24,7.4,24.4,5,24.8,2.6c0.1-0.4,0.1-1-0.5-1c-0.2,0-0.6,0.5-0.7,0.8c-0.3,1.1-0.4,2.3-0.6,3.5
		c-0.8,4.6-1.6,9.2-2.3,13.7c-0.1,0.8-0.4,1.1-1.2,1c-1.7-0.1-3.3,0-5,0c0.1,0.9,0.2,1.8,0.2,2.6C17.1,23.3,19.4,23.3,21.9,23.3z
		 M13.3,23.2c0.3-2.1-0.1-2.6-2.1-2.6c-2.5,0-5,0.1-7.6,0c-1.5,0-2.4,0.5-1.9,2.6C5.5,23.2,9.4,23.2,13.3,23.2z M1.5,24.6
		c0,4.6,0,9.2,0,13.7c0.7,0.2,0.7-0.3,0.8-0.7c0.4-3.2,0.8-6.5,1.3-9.7c0.1-1.1,0.3-2.2,0.4-3.3C3.1,24.6,2.4,24.6,1.5,24.6z
		 M12.7,38.4c0.7,0.2,0.7-0.2,0.8-0.7c0.4-2.8,0.7-5.6,1.1-8.5c0.2-1.5,0.4-3,0.6-4.6c-0.9,0-1.7,0-2.5,0
		C12.7,29.3,12.7,33.8,12.7,38.4z M19.4,24.6c0,0.1,0,0.2,0,0.3c0.6,4.3,1.1,8.7,1.7,13c0,0.2,0.4,0.4,0.7,0.7c0-4.9,0-9.4,0-14
		C21,24.6,20.3,24.6,19.4,24.6z"/>
	<path class="st0" d="M9.5,19.3c0.5-3,1-6,1.5-9c0.4-2.5,0.9-4.9,1.3-7.4c0.2-1.3,0.3-1.4,1.6-1.4c2.5,0,5,0,7.6,0c0.3,0,0.6,0,1,0
		c-1,6-2,11.8-3.1,17.7C16.1,19.3,12.8,19.3,9.5,19.3z"/>
	<path class="st0" d="M21.9,23.3c-2.5,0-4.8,0-7.2,0c-0.1-0.9-0.2-1.7-0.2-2.6c1.6,0,3.3,0,5,0c0.8,0,1.1-0.3,1.2-1
		c0.8-4.6,1.6-9.2,2.3-13.7c0.2-1.2,0.4-2.3,0.6-3.5c0.1-0.3,0.5-0.8,0.7-0.8c0.6,0,0.6,0.6,0.5,1C24.4,5,24,7.4,23.6,9.7
		c-0.6,3.3-1.2,6.6-1.7,9.9C21.8,20.8,21.9,22,21.9,23.3z"/>
	<path class="st0" d="M13.3,23.2c-3.9,0-7.8,0-11.6,0c-0.5-2.1,0.4-2.7,1.9-2.6c2.5,0.1,5,0,7.6,0C13.1,20.6,13.5,21.2,13.3,23.2z"
		/>
	<path class="st0" d="M1.5,24.6c0.8,0,1.6,0,2.5,0c-0.1,1.1-0.3,2.2-0.4,3.3c-0.4,3.2-0.8,6.5-1.3,9.7c-0.1,0.5,0,0.9-0.8,0.7
		C1.5,33.8,1.5,29.3,1.5,24.6z"/>
	<path class="st0" d="M12.7,38.4c0-4.5,0-9.1,0-13.7c0.8,0,1.6,0,2.5,0c-0.2,1.5-0.4,3-0.6,4.6c-0.4,2.8-0.7,5.6-1.1,8.5
		C13.4,38.2,13.4,38.6,12.7,38.4z"/>
	<path class="st0" d="M19.4,24.6c0.8,0,1.6,0,2.4,0c0,4.6,0,9.2,0,14c-0.4-0.3-0.7-0.5-0.7-0.7c-0.6-4.3-1.1-8.7-1.7-13
		C19.4,24.9,19.4,24.8,19.4,24.6z"/>
</g>
</svg>
