<svg id="Layer_1" data-name="Layer 1" xmlns="http://www.w3.org/2000/svg" viewBox="0 0 45.39 50"><title>pdf</title><path d="M43.08,49.5H6.81c0-.14-.18-.12-.27-.15a2.26,2.26,0,0,1-1.42-1.78c-.11-.61.1-.91.73-1a.76.76,0,0,1,.67.59c.2.85.32,1,1.19,1q17.1,0,34.2,0c1.54,0,1.62-.39,1.54-1.64,0,0,0-.1,0-.15q0-17.76,0-35.54c0-.31-.09-.39-.4-.39-2.12,0-4.24,0-6.36,0A1.49,1.49,0,0,1,35,8.69q0-3.1,0-6.21c0-.42-.08-.56-.54-.56q-12.93,0-25.87,0H8.15C6.67,1.88,6.53,2,6.53,3.5V27c0,.68-.09.81-.69,1-.62-.16-.77-.34-.75-1.06,0-.36-.07-.52-.46-.48a8.34,8.34,0,0,1-1,0,1.57,1.57,0,1,0-.12,3.13c.78,0,1.56,0,2.33,0a19.78,19.78,0,0,0,2.31,0c.19,0,.38,0,.57,0H27a2.29,2.29,0,0,1,2.56,2.57V42.28A2.32,2.32,0,0,1,27,44.9H10.25l-2.1,0H5.85c-.8,0-1.59,0-2.39,0a3,3,0,0,1-2.79-2c-.05-.13,0-.29-.18-.37V27.39c.15,0,.12-.17.16-.26a3,3,0,0,1,2.91-2.08,9.2,9.2,0,0,1,1.05,0c.39,0,.5-.08.49-.49q0-6.16,0-12.33c0-3.11,0-6.21,0-9.32A2.28,2.28,0,0,1,6.62.62c.07,0,.16,0,.19-.12H36.29a4.1,4.1,0,0,1,1.77,1.25l5.68,5.68A3.84,3.84,0,0,1,44.9,9.11V47.78A2.76,2.76,0,0,1,43.08,49.5ZM3.55,31.12a3.78,3.78,0,0,1-1.62-.48V41.58c0,1.3.6,1.89,1.91,1.89h23.1c.93,0,1.19-.26,1.18-1.2,0-.15,0-.29,0-.43s0-.32,0-.48v-9c0-1-.21-1.23-1.23-1.23H4.08ZM43,8.93,36.46,2.35c0,2.08,0,4.19,0,6.31,0,.25.11.28.31.28Z" style="fill:#020102"/><path d="M8.15,44.92l2.1,0H27a2.32,2.32,0,0,0,2.61-2.62V32.23A2.29,2.29,0,0,0,27,29.66H8.72c-.19,0-.38,0-.57,0V2h.48q12.93,0,25.87,0c.46,0,.54.14.54.56q0,3.1,0,6.21a1.49,1.49,0,0,0,1.68,1.68c2.12,0,4.24,0,6.36,0,.31,0,.4.08.4.39q0,17.78,0,35.54c0,.05,0,.1,0,.15H9.56A1.38,1.38,0,0,1,8.15,44.92ZM30.31,19.74a3.75,3.75,0,0,0-.67,0,1.12,1.12,0,0,1-1.1-.46,44.52,44.52,0,0,1-2.81-3.63,2,2,0,0,1-.37-2.22,1.23,1.23,0,0,0,.08-.33,8,8,0,0,0,.22-3.45,1.53,1.53,0,0,0-1.87-1.28,2,2,0,0,0-1.73,2.5,10.35,10.35,0,0,0,1.23,3.44,1,1,0,0,1,.07.89A44,44,0,0,1,21,21a.86.86,0,0,1-.55.47,13.49,13.49,0,0,0-3.22,1.44,3.94,3.94,0,0,0-1.42,1.39,1.91,1.91,0,0,0,.37,2.36,1.69,1.69,0,0,0,2.15.2,4.48,4.48,0,0,0,1.15-.93,16,16,0,0,0,2.12-3,.87.87,0,0,1,.57-.45A39.46,39.46,0,0,1,28,21.29a.78.78,0,0,1,.72.23A7.92,7.92,0,0,0,32,23.61a2,2,0,0,0,2.54-1.5c.26-.95-.28-1.72-1.47-2.07L33,20A9.43,9.43,0,0,0,30.31,19.74Z" style="fill:#ebe9eb"/><path d="M3.55,31.12l.53,0H26.89c1,0,1.23.21,1.23,1.23v9c0,.16,0,.32,0,.48H4.89a1.36,1.36,0,0,1-1.34-1.39ZM14.9,33.59H14c-.65,0-.9.24-.9.89,0,1,0,2,0,2.92s0,1.76,0,2.63c0,.68.28.94.93.94.48,0,.95,0,1.43,0a2.94,2.94,0,0,0,2.7-1.67,4.34,4.34,0,0,0,.43-2.69,3.18,3.18,0,0,0-2.35-2.94A6.57,6.57,0,0,0,14.9,33.59ZM8.43,33.5h-1c-.56,0-.82.26-.82.82s0,1.14,0,1.72c0,1.41,0,2.83,0,4.25a.71.71,0,0,0,.73.77.73.73,0,0,0,.7-.76c0-.24,0-.48,0-.71,0-.38-.11-.86.08-1.11s.68-.07,1-.09a2.5,2.5,0,0,0,2.33-2.15,2.45,2.45,0,0,0-1.87-2.68A5,5,0,0,0,8.43,33.5Zm11.69,3.76c0,1,0,2,0,3a.72.72,0,1,0,1.43,0c0-.59,0-1.18,0-1.77,0-.4.07-.59.51-.53a6.73,6.73,0,0,0,1.1,0,.66.66,0,0,0,.67-.68.67.67,0,0,0-.57-.72,2.27,2.27,0,0,0-.52,0c-1.25,0-1.24,0-1.19-1.23,0-.27.11-.32.34-.31h1.3c.51,0,.84-.29.85-.71a.74.74,0,0,0-.84-.72c-.73,0-1.47,0-2.2,0s-.87.25-.87.87C20.11,35.34,20.11,36.3,20.12,37.26Z" style="fill:#df5e77"/><path d="M8.15,44.92a1.38,1.38,0,0,0,1.41,1.52H43.45c.08,1.25,0,1.64-1.54,1.64q-17.1,0-34.2,0c-.87,0-1-.1-1.19-1a.76.76,0,0,0-.67-.59v-1.6Z" style="fill:#d9d7da"/><path d="M3.55,31.12v9.33a1.36,1.36,0,0,0,1.34,1.39H28.1c0,.14,0,.28,0,.43,0,.94-.25,1.2-1.18,1.2H3.84c-1.31,0-1.91-.59-1.91-1.89V30.64A3.78,3.78,0,0,0,3.55,31.12Z" style="fill:#d84655"/><path d="M8.15,2V29.63a19.78,19.78,0,0,1-2.31,0V28c.6-.21.69-.34.69-1V3.5C6.53,2,6.67,1.88,8.15,2Z" style="fill:#d9d7da"/><path d="M43,8.93H36.77c-.2,0-.31,0-.31-.28,0-2.12,0-4.23,0-6.31Z" style="fill:#d9d7da"/><path d="M5.84,28v1.59c-.77,0-1.55.05-2.33,0a1.57,1.57,0,1,1,.12-3.13,8.34,8.34,0,0,0,1,0c.39,0,.48.12.46.48C5.07,27.7,5.22,27.88,5.84,28Z" style="fill:#d84655"/><path d="M30.31,19.74A9.43,9.43,0,0,1,33,20l.09,0c1.19.35,1.73,1.12,1.47,2.07A2,2,0,0,1,32,23.61a7.92,7.92,0,0,1-3.27-2.09.78.78,0,0,0-.72-.23,39.46,39.46,0,0,0-5.91,1.11.87.87,0,0,0-.57.45,16,16,0,0,1-2.12,3,4.48,4.48,0,0,1-1.15.93,1.69,1.69,0,0,1-2.15-.2,1.91,1.91,0,0,1-.37-2.36,3.94,3.94,0,0,1,1.42-1.39,13.49,13.49,0,0,1,3.22-1.44A.86.86,0,0,0,21,21a44,44,0,0,0,2.4-5.76,1,1,0,0,0-.07-.89,10.35,10.35,0,0,1-1.23-3.44,2,2,0,0,1,1.73-2.5,1.53,1.53,0,0,1,1.87,1.28,8,8,0,0,1-.22,3.45,1.23,1.23,0,0,1-.08.33,2,2,0,0,0,.37,2.22,44.52,44.52,0,0,0,2.81,3.63,1.12,1.12,0,0,0,1.1.46A3.75,3.75,0,0,1,30.31,19.74Zm-3.1.2a36.58,36.58,0,0,1-2.73-3.56,43.94,43.94,0,0,1-1.82,4.38C24.19,20.43,25.65,20.13,27.21,19.94ZM19.5,23.37a5.53,5.53,0,0,0-2.39,1.46.5.5,0,0,0,0,.73c.24.26.45.06.63-.07A6.7,6.7,0,0,0,19.5,23.37Zm4.58-10.76a8.47,8.47,0,0,0,.24-2.39c0-.18,0-.42-.27-.42a.47.47,0,0,0-.55.35.85.85,0,0,0,0,.23A5.27,5.27,0,0,0,24.08,12.61Zm6.47,8.57a6.7,6.7,0,0,0,1.19.8,2,2,0,0,0,.9.27.52.52,0,0,0,.52-.47c.06-.27-.21-.28-.36-.33A6.53,6.53,0,0,0,30.55,21.18Z" style="fill:#020102"/><path d="M14.9,33.59a6.57,6.57,0,0,1,1.3.07,3.18,3.18,0,0,1,2.35,2.94,4.34,4.34,0,0,1-.43,2.69A2.94,2.94,0,0,1,15.42,41c-.48,0-.95,0-1.43,0-.65,0-.92-.26-.93-.94,0-.87,0-1.75,0-2.63s0-1.94,0-2.92c0-.65.25-.88.9-.89ZM15.24,35h-.43c-.22,0-.32,0-.32.29,0,1.3,0,2.61,0,3.91,0,.15,0,.27.2.31a1.93,1.93,0,0,0,2.42-1.8,3.46,3.46,0,0,0-.06-1.24A1.62,1.62,0,0,0,15.24,35Z" style="fill:#020102"/><path d="M8.43,33.5a5,5,0,0,1,1.2.06,2.45,2.45,0,0,1,1.87,2.68,2.5,2.5,0,0,1-2.33,2.15c-.36,0-.87-.16-1,.09s-.07.73-.08,1.11c0,.23,0,.47,0,.71a.73.73,0,0,1-.7.76.71.71,0,0,1-.73-.77c0-1.42,0-2.84,0-4.25,0-.58,0-1.15,0-1.72s.26-.81.82-.82Zm-.38,2.44c0,1.1.12,1.2,1.15,1a1.21,1.21,0,0,0,.44-.18,1,1,0,0,0,.16-1.5A2,2,0,0,0,8.18,35c-.29.21-.07.59-.13.88Z" style="fill:#020102"/><path d="M20.12,37.26c0-1,0-1.92,0-2.87,0-.62.26-.87.87-.87s1.47,0,2.2,0a.74.74,0,0,1,.84.72c0,.42-.34.7-.85.71h-1.3c-.23,0-.33,0-.34.31-.05,1.23-.06,1.23,1.19,1.23a2.27,2.27,0,0,1,.52,0,.67.67,0,0,1,.57.72.66.66,0,0,1-.67.68,6.73,6.73,0,0,1-1.1,0c-.44-.06-.53.13-.51.53,0,.59,0,1.18,0,1.77a.72.72,0,1,1-1.43,0C20.11,39.23,20.12,38.25,20.12,37.26Z" style="fill:#020102"/><path d="M27.21,19.94c-1.56.19-3,.49-4.55.82a43.94,43.94,0,0,0,1.82-4.38A36.58,36.58,0,0,0,27.21,19.94Z" style="fill:#ebe9eb"/><path d="M19.5,23.37a6.7,6.7,0,0,1-1.76,2.12c-.18.13-.39.33-.63.07a.5.5,0,0,1,0-.73A5.53,5.53,0,0,1,19.5,23.37Z" style="fill:#ebe9eb"/><path d="M24.08,12.61a5.27,5.27,0,0,1-.61-2.23.85.85,0,0,1,0-.23.47.47,0,0,1,.55-.35c.28,0,.26.24.27.42A8.47,8.47,0,0,1,24.08,12.61Z" style="fill:#d9d7da"/><path d="M30.55,21.18a6.53,6.53,0,0,1,2.25.27c.15.05.42.06.36.33a.52.52,0,0,1-.52.47,2,2,0,0,1-.9-.27A6.7,6.7,0,0,1,30.55,21.18Z" style="fill:#d9d7da"/><path d="M15.24,35a1.62,1.62,0,0,1,1.83,1.47,3.46,3.46,0,0,1,.06,1.24,1.93,1.93,0,0,1-2.42,1.8c-.21,0-.2-.16-.2-.31,0-1.3,0-2.61,0-3.91,0-.24.1-.31.32-.29Z" style="fill:#df5e77"/><path d="M8.05,35.94v-.1c.06-.29-.16-.67.13-.88a2,2,0,0,1,1.62.29,1,1,0,0,1-.16,1.5,1.21,1.21,0,0,1-.44.18C8.17,37.14,8.05,37,8.05,35.94Z" style="fill:#df5e77"/></svg>