<svg id="Layer_1" data-name="Layer 1" xmlns="http://www.w3.org/2000/svg" viewBox="0 0 50 36.35"><title>raw-img</title><path d="M.5,29.78V2.33A3.47,3.47,0,0,1,2.4.43H38.93C40.64,1.1,41,1.71,41,3.63c0,5.47,0,10.93,0,16.4,0,.5.15.59.6.58,2.23-.05,4.46-.06,6.68-.1a1.16,1.16,0,0,1,1.18.62c0,4.78,0,9.56,0,14.34,0,.4-.11.45-.47.45q-12.7,0-25.41,0a1.46,1.46,0,0,1-.43-1.23c0-.85,0-1.72,0-2.58,0-.35-.1-.43-.44-.42-1.89,0-3.79,0-5.69,0H3.17A2.53,2.53,0,0,1,.66,30C.62,29.94.64,29.81.5,29.78Zm1.69-1.19c.19-.21.32-.33.42-.46L7.5,22l4.44-5.56c.85-1.07,1.7-2.13,2.6-3.16a1.51,1.51,0,0,1,2-.19,3.41,3.41,0,0,1,.78.83c1.33,1.73,2.67,3.45,3.95,5.2.31.41.43.26.68,0l4.25-4.26a1.69,1.69,0,0,1,2.48.05c1.63,1.77,3.25,3.57,4.87,5.37a.89.89,0,0,0,.72.32c1.51,0,3,0,4.54,0,.42,0,.51-.11.51-.52q0-8.38,0-16.78c0-.91-.28-1.19-1.17-1.19h-35a.88.88,0,0,0-1,.95ZM36.4,22.2h0c-3.65,0-7.29,0-10.93,0-.44,0-.6.07-.59.56q0,5.52,0,11c0,.44.11.54.54.54q10.94,0,21.86,0c.46,0,.53-.14.53-.56,0-3.68,0-7.35,0-11,0-.43-.09-.56-.54-.56C43.65,22.21,40,22.2,36.4,22.2ZM15.66,14.55,3.31,30l.22,0H22.85c.33,0,.36-.13.36-.4,0-1.64,0-3.28,0-4.91a.67.67,0,0,0-.13-.49c-.38-.47-.74-.95-1.11-1.43l-4.28-5.62C17,16.29,16.35,15.43,15.66,14.55Zm11.82,1.63C26,17.54,24.53,19,23.09,20.44c-.49.49-.49.49.06,1,.35-.82.35-.82,1.29-.82h7.1c-.7-.8-1.33-1.56-2-2.26S28.24,16.82,27.48,16.18Z" style="fill:#000101"/><path d="M2.19,28.59V3.07a.88.88,0,0,1,1-.95h35c.89,0,1.17.28,1.17,1.19q0,8.39,0,16.78c0,.41-.09.53-.51.52-1.51,0-3,0-4.54,0a.89.89,0,0,1-.72-.32c-1.62-1.8-3.24-3.6-4.87-5.37a1.69,1.69,0,0,0-2.48-.05L22,19.13c-.25.25-.37.4-.68,0-1.28-1.75-2.62-3.47-3.95-5.2a3.41,3.41,0,0,0-.78-.83,1.51,1.51,0,0,0-2,.19c-.9,1-1.75,2.09-2.6,3.16L7.5,22,2.61,28.13C2.51,28.26,2.38,28.38,2.19,28.59ZM36,8a4.22,4.22,0,1,0-4.21,4.22A4.21,4.21,0,0,0,36,8Z" style="fill:#e0f6fc"/><path d="M36.4,22.2c3.62,0,7.25,0,10.87,0,.45,0,.54.13.54.56,0,3.68,0,7.35,0,11,0,.42-.07.56-.53.56q-10.94,0-21.86,0c-.43,0-.54-.1-.54-.54q0-5.52,0-11c0-.49.15-.56.59-.56,3.64,0,7.28,0,10.93,0Zm7.38,6.89-.09,0-.9-3c-.11-.39-.24-.75-.75-.74s-.61.33-.71.71c0,.12-.07.24-.1.36-.28.9-.56,1.8-.87,2.82-.08-.34-.12-.54-.17-.74-.18-.86-.35-1.72-.55-2.57a.64.64,0,0,0-.82-.56.59.59,0,0,0-.47.76c.34,1.51.69,3,1.07,4.51a.83.83,0,0,0,1.15.61.92.92,0,0,0,.59-.69c.28-.92.57-1.84.9-2.9.32,1.05.6,2,.87,2.86a.88.88,0,0,0,.93.76c.55,0,.76-.35.87-.81.32-1.37.65-2.74,1-4.1.13-.55,0-.91-.45-1s-.7.17-.83.74C44.21,27.1,44,28.09,43.78,29.09Zm-14.55-.22c.63.77,1.16,1.43,1.71,2.07a.69.69,0,0,0,1,.17c.29-.27.26-.63-.09-1l-1.17-1.27a1.54,1.54,0,0,0,1.32-1.09,1.76,1.76,0,0,0-1.51-2.27,15.87,15.87,0,0,0-1.95,0,.63.63,0,0,0-.67.72v4.43c0,.44.22.71.67.7s.64-.29.64-.73S29.23,29.53,29.23,28.87Zm9,1.74a.88.88,0,0,0,0-.16c-.54-1.59-1.09-3.19-1.77-4.72a.92.92,0,0,0-1.68.09c-.62,1.49-1.17,3-1.73,4.52a.59.59,0,0,0,.4.84c.42.13.77,0,.84-.46.1-.61.44-.78,1-.68a1.53,1.53,0,0,0,.37,0c.66-.05,1.29-.09,1.42.83,0,.3.37.4.68.33A.58.58,0,0,0,38.25,30.61Z" style="fill:#fbc524"/><path d="M15.66,14.55c.69.88,1.36,1.74,2,2.6L22,22.77c.37.48.73,1,1.11,1.43a.67.67,0,0,1,.13.49c0,1.63,0,3.27,0,4.91,0,.27,0,.4-.36.4H3.53l-.22,0Z" style="fill:#fe6e00"/><path d="M27.48,16.18c.76.64,1.35,1.45,2,2.16s1.32,1.46,2,2.26h-7.1c-.94,0-.94,0-1.29.82-.55-.49-.55-.49-.06-1C24.53,19,26,17.54,27.48,16.18Z" style="fill:#fe6e00"/><path d="M36,8a4.22,4.22,0,1,1-4.2-4.23A4.22,4.22,0,0,1,36,8ZM31.74,5.5a2.54,2.54,0,1,0,2.54,2.55A2.55,2.55,0,0,0,31.74,5.5Z" style="fill:#000101"/><path d="M43.78,29.09c.21-1,.43-2,.64-3,.13-.57.42-.83.83-.74s.58.46.45,1c-.32,1.36-.65,2.73-1,4.1-.11.46-.32.81-.87.81a.88.88,0,0,1-.93-.76c-.27-.9-.55-1.81-.87-2.86-.33,1.06-.62,2-.9,2.9a.92.92,0,0,1-.59.69.83.83,0,0,1-1.15-.61c-.38-1.5-.73-3-1.07-4.51a.59.59,0,0,1,.47-.76.64.64,0,0,1,.82.56c.2.85.37,1.71.55,2.57.05.2.09.4.17.74.31-1,.59-1.92.87-2.82,0-.12.07-.24.1-.36.1-.38.25-.7.71-.71s.64.35.75.74l.9,3Z" style="fill:#000101"/><path d="M29.23,28.87c0,.66,0,1.17,0,1.67s-.17.73-.64.73-.67-.26-.67-.7V26.14a.63.63,0,0,1,.67-.72,15.87,15.87,0,0,1,1.95,0,1.76,1.76,0,0,1,1.51,2.27,1.54,1.54,0,0,1-1.32,1.09l1.17,1.27c.35.39.38.75.09,1a.69.69,0,0,1-1-.17C30.39,30.3,29.86,29.64,29.23,28.87Zm.53-2.26c-.32-.05-.63,0-.53.52.07.34-.23.85.51.8s1.06-.22,1.06-.67S30.48,26.61,29.76,26.61Z" style="fill:#000101"/><path d="M38.25,30.61a.58.58,0,0,1-.5.59c-.31.07-.64,0-.68-.33-.13-.92-.76-.88-1.42-.83a1.53,1.53,0,0,1-.37,0c-.55-.1-.89.07-1,.68-.07.45-.42.59-.84.46a.59.59,0,0,1-.4-.84c.56-1.52,1.11-3,1.73-4.52a.92.92,0,0,1,1.68-.09c.68,1.53,1.23,3.13,1.77,4.72A.88.88,0,0,1,38.25,30.61Zm-2.61-4-.74,2.26c.42,0,.78,0,1.15,0,.2,0,.3-.06.23-.27Z" style="fill:#000101"/><path d="M31.74,5.5A2.54,2.54,0,1,1,29.22,8,2.55,2.55,0,0,1,31.74,5.5Z" style="fill:#fcfc3d"/><path d="M29.76,26.61c.72,0,1,.22,1,.65s-.34.62-1.06.67-.44-.46-.51-.8C29.13,26.6,29.44,26.56,29.76,26.61Z" style="fill:#fbc524"/><path d="M35.64,26.61l.64,2c.07.21,0,.27-.23.27-.37,0-.73,0-1.15,0Z" style="fill:#fbc524"/></svg>