<?xml version="1.0" encoding="utf-8"?>
<!-- Generator: Adobe Illustrator 23.0.1, SVG Export Plug-In . SVG Version: 6.00 Build 0)  -->
<svg version="1.1" id="Layer_1" xmlns="http://www.w3.org/2000/svg" xmlns:xlink="http://www.w3.org/1999/xlink" x="0px" y="0px"
	 viewBox="0 0 40 36.8" style="enable-background:new 0 0 40 36.8;" xml:space="preserve">
<style type="text/css">
	.st0{fill:#191919;}
</style>
<g>
	<path d="M17.3,17.7c-1.3,3.5-2.6,7.1-4,10.6c-0.9,2.4-1.8,4.8-2.7,7.2c-0.2,0.7-0.6,1-1.3,0.9c-0.9-0.1-1.9,0-2.8,0
		c-1.2,0-1.4-0.3-0.9-1.5c2.1-5.2,4.2-10.4,6.3-15.7c0.7-1.7,1.4-3.3,2-5c0.1-0.3,0.1-0.8,0-1.2c-0.3-1-0.8-2-1.1-3
		c-0.1-0.4-0.4-0.6-0.8-0.6C9.2,9.2,6.4,8.9,3.6,8.4C0.3,7.8-0.2,6.9,0.4,3.5c0.1-0.5,0.6-1,1.1-1.2c1.5-0.5,3-0.9,4.6-1.2
		c6.7-1,13.4-1.1,20.2-0.7c3.5,0.2,6.9,0.6,10.4,1.2c3,0.5,3.7,1.6,3,4.8c-0.1,0.5-0.7,1-1.1,1.2c-1.5,0.5-3,0.9-4.5,1.1
		c-2,0.3-4,0.5-6.1,0.6c-0.4,0-0.7,0.2-0.8,0.6c0,0,0,0.1,0,0.1c-0.4,1.2-1.2,2.3-1.2,3.5c0,1.2,0.8,2.3,1.2,3.5
		c2.4,5.9,4.8,11.9,7.2,17.8c0.5,1.2,0.3,1.5-0.9,1.5c-0.9,0-1.9,0-2.8,0c-0.7,0-1-0.2-1.3-0.9c-2.1-5.7-4.2-11.3-6.3-17
		c-0.1-0.3-0.2-0.6-0.4-0.8c0,0.3,0,0.6,0,0.8c0,5.5,0,11.1,0,16.6c0,1.2-0.1,1.3-1.2,1.3c-0.9,0-1.8,0-2.7,0c-1.2,0-1.2,0-1.2-1.3
		c0-5.5,0-11,0-16.6c0-0.3,0-0.6,0-0.9C17.4,17.8,17.3,17.8,17.3,17.7z M1.9,3.6c0,0.1,0,0.2,0,0.3C3,4.2,4.2,4.5,5.4,4.7
		c4.6,0.8,9.3,1,13.9,1c5.7,0,11.4-0.2,17.1-1.3c0.6-0.1,1.2-0.4,2-0.6C33.4,1.1,6.7,1.1,1.9,3.6z M14.1,9.7
		c0.4,1.1,0.9,2.1,1.2,3.2c0.1,0.5,0.2,1.1,0,1.6c-2.6,6.6-5.3,13.2-7.9,19.7c-0.1,0.3-0.2,0.6-0.3,0.9c0.6,0,1.1,0,1.6,0
		c0.6,0.1,0.8-0.1,1-0.7c2.5-6.8,5-13.5,7.5-20.2c0.1-0.3,0.2-0.5,0.2-0.8c-0.1-1.2-0.3-2.4-0.4-3.7C16,9.7,15.1,9.7,14.1,9.7z
		 M23.1,9.7c-0.1,0.4-0.1,0.8-0.2,1.1c-0.3,1.8-0.3,3.5,0.5,5.2c0.5,0.9,0.8,2,1.1,3c1.9,5.1,3.8,10.2,5.7,15.4
		c0.1,0.3,0.4,0.7,0.6,0.7c0.6,0.1,1.3,0,2,0c-0.1-0.4-0.2-0.7-0.4-0.9c-2.6-6.6-5.3-13.1-7.9-19.7c-0.2-0.4-0.2-1,0-1.5
		c0.3-1.1,0.8-2.2,1.2-3.3C24.9,9.7,24,9.7,23.1,9.7z M18.8,35.1c0.9,0,1.7,0,2.5,0c0-6.9,0-13.8,0-20.6c-0.9,0-1.7,0-2.5,0
		C18.8,21.4,18.8,28.2,18.8,35.1z M1.6,5.4C1.4,6.1,1.7,6.5,2.5,6.7c0.2,0,0.4,0.1,0.6,0.2C6.6,7.8,10.2,8,13.8,8.2
		c5.7,0.3,11.4,0.2,17-0.4c2.3-0.2,4.5-0.7,6.7-1.2c1-0.2,1-0.4,0.8-1.3C26.1,7.7,13.9,7.7,1.6,5.4z M21.3,13
		c0.1-1.1,0.3-2.2,0.4-3.3c-1.2,0-2.3,0-3.4,0c0.1,1.1,0.3,2.2,0.4,3.3C19.6,13,20.4,13,21.3,13z"/>
	<path class="st0" d="M1.9,3.6c4.8-2.5,31.5-2.5,36.4,0.1c-0.8,0.2-1.4,0.5-2,0.6C30.7,5.5,25,5.7,19.3,5.7c-4.7,0-9.3-0.2-13.9-1
		C4.2,4.5,3,4.2,1.9,3.9C1.9,3.8,1.9,3.7,1.9,3.6z"/>
	<path class="st0" d="M14.1,9.7c1,0,1.9,0,2.9,0c0.2,1.3,0.3,2.5,0.4,3.7c0,0.3-0.1,0.5-0.2,0.8c-2.5,6.7-5,13.5-7.5,20.2
		c-0.2,0.6-0.5,0.8-1,0.7c-0.5,0-1,0-1.6,0c0.1-0.4,0.2-0.6,0.3-0.9c2.6-6.6,5.3-13.1,7.9-19.7c0.2-0.4,0.1-1.1,0-1.6
		C15,11.8,14.5,10.8,14.1,9.7z"/>
	<path class="st0" d="M23.1,9.7c0.9,0,1.8,0,2.8,0c-0.4,1.1-0.9,2.2-1.2,3.3c-0.1,0.5-0.2,1.1,0,1.5c2.6,6.6,5.3,13.2,7.9,19.7
		c0.1,0.3,0.2,0.6,0.4,0.9c-0.7,0-1.4,0.1-2,0c-0.2,0-0.5-0.4-0.6-0.7c-1.9-5.1-3.8-10.2-5.7-15.4c-0.4-1-0.7-2.1-1.1-3
		c-0.9-1.7-0.9-3.4-0.5-5.2C22.9,10.4,23,10.1,23.1,9.7z"/>
	<path class="st0" d="M18.8,35.1c0-6.9,0-13.7,0-20.6c0.8,0,1.6,0,2.5,0c0,6.9,0,13.7,0,20.6C20.4,35.1,19.6,35.1,18.8,35.1z"/>
	<path class="st0" d="M1.6,5.4c12.3,2.3,24.5,2.3,36.8,0c0.2,0.8,0.1,1.1-0.8,1.3c-2.2,0.5-4.5,0.9-6.7,1.2
		c-5.7,0.6-11.4,0.7-17,0.4C10.2,8,6.6,7.8,3.1,6.9C2.9,6.8,2.7,6.8,2.5,6.7C1.7,6.5,1.4,6.1,1.6,5.4z"/>
	<path class="st0" d="M21.3,13c-0.9,0-1.7,0-2.6,0c-0.1-1.1-0.3-2.1-0.4-3.3c1.1,0,2.3,0,3.4,0C21.6,10.8,21.5,11.9,21.3,13z"/>
</g>
</svg>
