<svg id="Layer_1" data-name="Layer 1" xmlns="http://www.w3.org/2000/svg" viewBox="0 0 50 39.67"><title>upload-img</title><path d="M.5,29.76V2.31A3.44,3.44,0,0,1,2.4.41H38.94c1.71.66,2.11,1.27,2.11,3.2V20.24c0,.3,0,.5.41.55a9.29,9.29,0,0,1,7.82,7.14,2,2,0,0,0,.22.88v2.43c-.2.13-.13.35-.17.52A9.22,9.22,0,0,1,42.41,39a4.56,4.56,0,0,0-1.15.26H38.94c-.12-.2-.35-.14-.52-.18a9.13,9.13,0,0,1-7.22-6.93c-.11-.38-.23-.51-.65-.51-7.16,0-14.31,0-21.47,0-2,0-4,0-6,0a2.49,2.49,0,0,1-2.44-1.6C.63,30,.65,29.8.5,29.76Zm1.69-1.19c.19-.2.3-.31.4-.43,1.51-1.89,3-3.79,4.54-5.68s2.92-3.69,4.4-5.53c1-1.22,2-2.46,3-3.64a1.55,1.55,0,0,1,2.45.14c1.47,1.9,3,3.8,4.39,5.72.26.34.35.24.57,0q2.16-2.18,4.33-4.33a1.68,1.68,0,0,1,2.36-.05c.41.39.77.82,1.14,1.24l5.31,5.83c.17.2.28.21.52.06a7.78,7.78,0,0,1,3.12-1.1c.56-.06.66-.25.66-.76q0-8.4,0-16.79c0-.9-.28-1.17-1.19-1.17H3.38c-.91,0-1.19.27-1.19,1.17v25.3ZM27.36,30a.48.48,0,0,0-.11-.32L25,26.77c-1.31-1.69-2.62-3.37-3.92-5.07-1.74-2.28-3.46-4.58-5.19-6.87-.18-.24-.32-.29-.54,0-.63.84-1.29,1.65-1.94,2.47-1.35,1.68-2.72,3.35-4.07,5L4.89,28c-.51.64-1,1.28-1.6,2Zm5.24,0a7.6,7.6,0,1,0,7.49-7.58A7.59,7.59,0,0,0,32.6,30Zm-2.41,0c.71,0,.68,0,.74-.67a8.23,8.23,0,0,1,.25-1.64,9.13,9.13,0,0,1,2.51-4.3c.2-.19.18-.31,0-.5-.6-.61-1.21-1.22-1.76-1.87-.37-.45-.79-.84-1.17-1.27-1-1.15-2-2.27-3.05-3.37-.16-.17-.25-.19-.44,0-1.48,1.38-2.89,2.82-4.33,4.24-.22.21-.22.35,0,.59C25,24,27.18,26.72,29.3,29.52,29.57,29.88,29.83,30.05,30.19,30Z" style="fill:#010202"/><path d="M2.19,28.57V3.27c0-.9.28-1.17,1.19-1.17H38.17c.91,0,1.19.27,1.19,1.17q0,8.4,0,16.79c0,.51-.1.7-.66.76a7.78,7.78,0,0,0-3.12,1.1c-.24.15-.35.14-.52-.06L29.76,16c-.37-.42-.73-.85-1.14-1.24a1.68,1.68,0,0,0-2.36.05Q24.08,17,21.93,19.17c-.22.22-.31.32-.57,0-1.44-1.92-2.92-3.82-4.39-5.72a1.55,1.55,0,0,0-2.45-.14c-1,1.18-2,2.42-3,3.64-1.48,1.84-2.94,3.69-4.4,5.53s-3,3.79-4.54,5.68C2.49,28.26,2.38,28.37,2.19,28.57ZM31.76,3.79A4.22,4.22,0,1,0,36,8,4.21,4.21,0,0,0,31.76,3.79Z" style="fill:#e0f6fc"/><path d="M27.36,30H3.29c.56-.71,1.09-1.35,1.6-2l4.49-5.64c1.35-1.68,2.72-3.35,4.07-5,.65-.82,1.31-1.63,1.94-2.47.22-.28.36-.23.54,0,1.73,2.29,3.45,4.59,5.19,6.87,1.3,1.7,2.61,3.38,3.92,5.07l2.21,2.86A.48.48,0,0,1,27.36,30Z" style="fill:#fe6e00"/><path d="M32.6,30a7.6,7.6,0,1,1,7.27,7.6A7.54,7.54,0,0,1,32.6,30Zm8.45-2.43,2.84,2.26a.86.86,0,0,0,1.17-.09.83.83,0,0,0-.1-1.22q-2.05-1.68-4.14-3.31c-.5-.4-.77-.36-1.3.05-.24.18-.48.34-.71.53-1.12.91-2.25,1.81-3.36,2.73a.82.82,0,0,0-.14,1.17.77.77,0,0,0,1.18.11c.26-.19.5-.39.75-.58l2.12-1.69v6.64a.85.85,0,0,0,.47.82.76.76,0,0,0,.87-.13,1,1,0,0,0,.35-.89Z" style="fill:#28a645"/><path d="M30.19,30c-.36.08-.62-.09-.89-.45C27.18,26.72,25,24,22.89,21.17c-.18-.24-.18-.38,0-.59,1.44-1.42,2.85-2.86,4.33-4.24.19-.18.28-.16.44,0,1,1.1,2.07,2.22,3.05,3.37.38.43.8.82,1.17,1.27.55.65,1.16,1.26,1.76,1.87.19.19.21.31,0,.5a9.13,9.13,0,0,0-2.51,4.3,8.23,8.23,0,0,0-.25,1.64C30.87,30,30.9,30,30.19,30Z" style="fill:#fe6e00"/><path d="M31.76,3.79A4.22,4.22,0,1,1,27.53,8,4.21,4.21,0,0,1,31.76,3.79Zm0,1.68A2.54,2.54,0,1,0,34.29,8,2.57,2.57,0,0,0,31.75,5.47Z" style="fill:#010202"/><path d="M41.05,27.54v6.4a1,1,0,0,1-.35.89.76.76,0,0,1-.87.13.85.85,0,0,1-.47-.82V27.5l-2.12,1.69c-.25.19-.49.39-.75.58a.77.77,0,0,1-1.18-.11.82.82,0,0,1,.14-1.17c1.11-.92,2.24-1.82,3.36-2.73.23-.19.47-.35.71-.53.53-.41.8-.45,1.3-.05q2.09,1.63,4.14,3.31a.83.83,0,0,1,.1,1.22.86.86,0,0,1-1.17.09Z" style="fill:#010202"/><path d="M31.75,5.47A2.54,2.54,0,1,1,29.22,8,2.57,2.57,0,0,1,31.75,5.47Z" style="fill:#fcfc3d"/></svg>